# Blender v2.81 (sub 16) OBJ File: ''
# www.blender.org
mtllib loopdeloop2.mtl
o Plane
v -1.000000 0.000000 0.988335
v 1.000000 0.000000 0.988335
v -1.000000 0.000000 -9.011665
v 1.000000 0.000000 -9.011665
vt 0.000000 0.000000
vt 1.000000 0.000000
vt 1.000000 1.000000
vt 0.000000 1.000000
vn 0.0000 1.0000 0.0000
usemtl None
s off
f 1/1/1 2/2/1 4/3/1 3/4/1
o Cylinder
v -0.999648 0.019215 -4.195090
v 0.000352 0.019215 -4.195090
v -0.999648 0.000000 -4.000000
v 0.000352 0.000000 -4.000000
v -0.967390 0.076121 -4.382683
v 0.032610 0.076121 -4.382683
v -0.967390 0.019215 -4.195090
v 0.032610 0.019215 -4.195090
v -0.935132 0.168531 -4.555570
v 0.064868 0.168531 -4.555570
v -0.935132 0.076121 -4.382684
v 0.064868 0.076121 -4.382684
v -0.902874 0.292894 -4.707107
v 0.097126 0.292893 -4.707107
v -0.902874 0.168531 -4.555570
v 0.097126 0.168531 -4.555570
v -0.870616 0.444430 -4.831470
v 0.129384 0.444430 -4.831470
v -0.870616 0.292894 -4.707107
v 0.129384 0.292894 -4.707107
v -0.838358 0.617317 -4.923880
v 0.161642 0.617317 -4.923880
v -0.838358 0.444430 -4.831470
v 0.161642 0.444430 -4.831470
v -0.806100 0.804910 -4.980785
v 0.193900 0.804910 -4.980785
v -0.806100 0.617317 -4.923880
v 0.193900 0.617317 -4.923880
v -0.773842 1.000000 -5.000000
v 0.226158 1.000000 -5.000000
v -0.773842 0.804910 -4.980785
v 0.226158 0.804910 -4.980785
v -0.741583 1.195091 -4.980785
v 0.258417 1.195091 -4.980785
v -0.741583 1.000000 -5.000000
v 0.258417 1.000000 -5.000000
v -0.709325 1.382684 -4.923879
v 0.290675 1.382684 -4.923879
v -0.709325 1.195091 -4.980785
v 0.290675 1.195091 -4.980785
v -0.677067 1.555570 -4.831469
v 0.322933 1.555570 -4.831469
v -0.677067 1.382684 -4.923879
v 0.322933 1.382684 -4.923879
v -0.644809 1.707107 -4.707106
v 0.355191 1.707107 -4.707107
v -0.644809 1.555570 -4.831469
v 0.355191 1.555570 -4.831469
v -0.612551 1.831470 -4.555570
v 0.387449 1.831470 -4.555570
v -0.612551 1.707107 -4.707106
v 0.387449 1.707107 -4.707106
v -0.580293 1.923879 -4.382683
v 0.419707 1.923879 -4.382683
v -0.580293 1.831470 -4.555570
v 0.419707 1.831470 -4.555570
v -0.548035 1.980785 -4.195090
v 0.451965 1.980785 -4.195090
v -0.548035 1.923879 -4.382683
v 0.451965 1.923879 -4.382683
v -0.515777 2.000000 -4.000000
v 0.484223 2.000000 -4.000000
v -0.515777 1.980785 -4.195090
v 0.484223 1.980785 -4.195090
v -0.483519 1.980785 -3.804909
v 0.516481 1.980785 -3.804909
v -0.483519 2.000000 -4.000000
v 0.516481 2.000000 -4.000000
v -0.451261 1.923879 -3.617316
v 0.548739 1.923879 -3.617316
v -0.451261 1.980785 -3.804909
v 0.548739 1.980785 -3.804909
v -0.419003 1.831469 -3.444430
v 0.580997 1.831469 -3.444430
v -0.419003 1.923879 -3.617316
v 0.580997 1.923879 -3.617316
v -0.386745 1.707106 -3.292893
v 0.613255 1.707106 -3.292893
v -0.386745 1.831469 -3.444430
v 0.613255 1.831469 -3.444430
v -0.354487 1.555569 -3.168531
v 0.645513 1.555570 -3.168530
v -0.354487 1.707106 -3.292893
v 0.645513 1.707106 -3.292893
v -0.322229 1.382683 -3.076121
v 0.677771 1.382683 -3.076121
v -0.322229 1.555569 -3.168530
v 0.677771 1.555569 -3.168530
v -0.289971 1.195090 -3.019215
v 0.710029 1.195090 -3.019215
v -0.289971 1.382683 -3.076121
v 0.710029 1.382683 -3.076121
v -0.257713 0.999999 -3.000001
v 0.742287 0.999999 -3.000001
v -0.257713 1.195089 -3.019215
v 0.742287 1.195089 -3.019215
v -0.225455 0.804909 -3.019216
v 0.774545 0.804909 -3.019216
v -0.225455 0.999999 -3.000001
v 0.774545 0.999999 -3.000001
v -0.193197 0.617316 -3.076122
v 0.806803 0.617316 -3.076121
v -0.193197 0.804909 -3.019216
v 0.806803 0.804909 -3.019216
v -0.160939 0.444430 -3.168532
v 0.839061 0.444430 -3.168531
v -0.160939 0.617316 -3.076122
v 0.839061 0.617316 -3.076122
v -0.128681 0.292893 -3.292894
v 0.871319 0.292893 -3.292894
v -0.128681 0.444430 -3.168532
v 0.871319 0.444430 -3.168532
v -0.096423 0.168531 -3.444431
v 0.903577 0.168531 -3.444431
v -0.096423 0.292893 -3.292894
v 0.903577 0.292893 -3.292894
v -0.064165 0.076121 -3.617318
v 0.935835 0.076121 -3.617318
v -0.064165 0.168531 -3.444431
v 0.935835 0.168531 -3.444431
v -0.031907 0.019216 -3.804911
v 0.968094 0.019216 -3.804911
v -0.031907 0.076121 -3.617318
v 0.968094 0.076121 -3.617318
v 0.000352 0.000001 -4.000001
v 1.000351 0.000001 -4.000001
v 0.000352 0.019216 -3.804911
v 1.000351 0.019216 -3.804911
v 0.000352 -0.064628 -4.203348
v -0.999648 -0.064627 -4.203348
v -0.999648 -0.083842 -4.008258
v 0.000352 -0.083842 -4.008258
v 0.032610 -0.004500 -4.407139
v -0.967390 -0.004500 -4.407139
v -0.967390 -0.061405 -4.219546
v 0.032610 -0.061405 -4.219546
v 0.064868 0.094230 -4.595284
v -0.935132 0.094231 -4.595284
v -0.935132 0.001821 -4.422398
v 0.064868 0.001821 -4.422398
v 0.097126 0.227769 -4.760553
v -0.902874 0.227769 -4.760553
v -0.902874 0.103406 -4.609016
v 0.097126 0.103406 -4.609016
v 0.129384 0.390984 -4.896594
v -0.870616 0.390984 -4.896594
v -0.870616 0.239447 -4.772232
v 0.129384 0.239447 -4.772232
v 0.161642 0.577603 -4.998179
v -0.838358 0.577603 -4.998179
v -0.838358 0.404716 -4.905770
v 0.161642 0.404716 -4.905770
v 0.193900 0.780454 -5.061405
v -0.806100 0.780454 -5.061405
v -0.806100 0.592861 -5.004499
v 0.193900 0.592861 -5.004499
v 0.226158 0.991743 -5.083842
v -0.773842 0.991743 -5.083842
v -0.773842 0.796652 -5.064628
v 0.226158 0.796652 -5.064628
v 0.258417 1.203348 -5.064627
v -0.741583 1.203348 -5.064627
v -0.741583 1.008258 -5.083842
v 0.258417 1.008258 -5.083842
v 0.290675 1.407140 -5.004499
v -0.709325 1.407140 -5.004499
v -0.709325 1.219547 -5.061405
v 0.290675 1.219547 -5.061405
v 0.322933 1.595285 -4.905769
v -0.677067 1.595285 -4.905769
v -0.677067 1.422398 -4.998179
v 0.322933 1.422398 -4.998179
v 0.355191 1.760553 -4.772231
v -0.644809 1.760553 -4.772231
v -0.644809 1.609017 -4.896594
v 0.355191 1.609017 -4.896594
v 0.387449 1.896594 -4.609016
v -0.612551 1.896594 -4.609016
v -0.612551 1.772231 -4.760552
v 0.387449 1.772231 -4.760552
v 0.419707 1.998180 -4.422397
v -0.580293 1.998179 -4.422397
v -0.580293 1.905770 -4.595284
v 0.419707 1.905770 -4.595284
v 0.451965 2.061405 -4.219546
v -0.548035 2.061405 -4.219546
v -0.548035 2.004499 -4.407139
v 0.451965 2.004499 -4.407139
v 0.484223 2.083842 -4.008257
v -0.515777 2.083842 -4.008257
v -0.515777 2.064627 -4.203347
v 0.484223 2.064627 -4.203347
v 0.516481 2.064627 -3.796652
v -0.483519 2.064627 -3.796652
v -0.483519 2.083842 -3.991742
v 0.516481 2.083842 -3.991742
v 0.548739 2.004499 -3.592860
v -0.451261 2.004499 -3.592860
v -0.451261 2.061405 -3.780453
v 0.548739 2.061405 -3.780453
v 0.580997 1.905769 -3.404716
v -0.419003 1.905769 -3.404716
v -0.419003 1.998179 -3.577602
v 0.580997 1.998179 -3.577602
v 0.613255 1.772231 -3.239447
v -0.386745 1.772231 -3.239447
v -0.386745 1.896593 -3.390983
v 0.613255 1.896593 -3.390983
v 0.645513 1.609016 -3.103406
v -0.354487 1.609016 -3.103406
v -0.354487 1.760552 -3.227769
v 0.645513 1.760552 -3.227769
v 0.677771 1.422397 -3.001821
v -0.322229 1.422397 -3.001821
v -0.322229 1.595284 -3.094230
v 0.677771 1.595284 -3.094230
v 0.710029 1.219545 -2.938595
v -0.289971 1.219545 -2.938595
v -0.289971 1.407138 -2.995501
v 0.710029 1.407138 -2.995501
v 0.742287 1.008257 -2.916158
v -0.257713 1.008257 -2.916159
v -0.257713 1.203347 -2.935373
v 0.742287 1.203347 -2.935373
v 0.774545 0.796651 -2.935373
v -0.225455 0.796651 -2.935373
v -0.225455 0.991741 -2.916159
v 0.774545 0.991741 -2.916159
v 0.806803 0.592860 -2.995501
v -0.193197 0.592860 -2.995501
v -0.193197 0.780453 -2.938595
v 0.806803 0.780453 -2.938595
v 0.839061 0.404715 -3.094231
v -0.160939 0.404715 -3.094232
v -0.160939 0.577602 -3.001822
v 0.839061 0.577602 -3.001822
v 0.871319 0.239447 -3.227770
v -0.128681 0.239447 -3.227770
v -0.128681 0.390983 -3.103407
v 0.871319 0.390983 -3.103407
v 0.903577 0.103406 -3.390985
v -0.096423 0.103406 -3.390985
v -0.096423 0.227769 -3.239448
v 0.903577 0.227769 -3.239448
v 0.935835 0.001821 -3.577604
v -0.064165 0.001821 -3.577604
v -0.064165 0.094231 -3.404717
v 0.935835 0.094231 -3.404717
v 0.968094 -0.061405 -3.780455
v -0.031907 -0.061405 -3.780455
v -0.031907 -0.004499 -3.592862
v 0.968094 -0.004499 -3.592862
v 1.000351 -0.083841 -3.991743
v 0.000352 -0.083841 -3.991743
v 0.000352 -0.064627 -3.796653
v 1.000351 -0.064627 -3.796653
vt 0.781250 0.500000
vt 0.750000 0.500000
vt 0.750000 1.000000
vt 0.781250 1.000000
vt 0.781250 0.500000
vt 0.750000 0.500000
vt 0.750000 1.000000
vt 0.781250 1.000000
vt 0.781250 0.500000
vt 0.750000 0.500000
vt 0.750000 1.000000
vt 0.781250 1.000000
vt 0.781250 0.500000
vt 0.750000 0.500000
vt 0.750000 1.000000
vt 0.781250 1.000000
vt 0.781250 0.500000
vt 0.750000 0.500000
vt 0.750000 1.000000
vt 0.781250 1.000000
vt 0.781250 0.500000
vt 0.750000 0.500000
vt 0.750000 1.000000
vt 0.781250 1.000000
vt 0.781250 0.500000
vt 0.750000 0.500000
vt 0.750000 1.000000
vt 0.781250 1.000000
vt 0.781250 0.500000
vt 0.750000 0.500000
vt 0.750000 1.000000
vt 0.781250 1.000000
vt 0.781250 0.500000
vt 0.750000 0.500000
vt 0.750000 1.000000
vt 0.781250 1.000000
vt 0.781250 0.500000
vt 0.750000 0.500000
vt 0.750000 1.000000
vt 0.781250 1.000000
vt 0.781250 0.500000
vt 0.750000 0.500000
vt 0.750000 1.000000
vt 0.781250 1.000000
vt 0.781250 0.500000
vt 0.750000 0.500000
vt 0.750000 1.000000
vt 0.781250 1.000000
vt 0.781250 0.500000
vt 0.750000 0.500000
vt 0.750000 1.000000
vt 0.781250 1.000000
vt 0.781250 0.500000
vt 0.750000 0.500000
vt 0.750000 1.000000
vt 0.781250 1.000000
vt 0.781250 0.500000
vt 0.750000 0.500000
vt 0.750000 1.000000
vt 0.781250 1.000000
vt 0.781250 0.500000
vt 0.750000 0.500000
vt 0.750000 1.000000
vt 0.781250 1.000000
vt 0.781250 0.500000
vt 0.750000 0.500000
vt 0.750000 1.000000
vt 0.781250 1.000000
vt 0.781250 0.500000
vt 0.750000 0.500000
vt 0.750000 1.000000
vt 0.781250 1.000000
vt 0.781250 0.500000
vt 0.750000 0.500000
vt 0.750000 1.000000
vt 0.781250 1.000000
vt 0.781250 0.500000
vt 0.750000 0.500000
vt 0.750000 1.000000
vt 0.781250 1.000000
vt 0.781250 0.500000
vt 0.750000 0.500000
vt 0.750000 1.000000
vt 0.781250 1.000000
vt 0.781250 0.500000
vt 0.750000 0.500000
vt 0.750000 1.000000
vt 0.781250 1.000000
vt 0.781250 0.500000
vt 0.750000 0.500000
vt 0.750000 1.000000
vt 0.781250 1.000000
vt 0.781250 0.500000
vt 0.750000 0.500000
vt 0.750000 1.000000
vt 0.781250 1.000000
vt 0.781250 0.500000
vt 0.750000 0.500000
vt 0.750000 1.000000
vt 0.781250 1.000000
vt 0.781250 0.500000
vt 0.750000 0.500000
vt 0.750000 1.000000
vt 0.781250 1.000000
vt 0.781250 0.500000
vt 0.750000 0.500000
vt 0.750000 1.000000
vt 0.781250 1.000000
vt 0.781250 0.500000
vt 0.750000 0.500000
vt 0.750000 1.000000
vt 0.781250 1.000000
vt 0.781250 0.500000
vt 0.750000 0.500000
vt 0.750000 1.000000
vt 0.781250 1.000000
vt 0.781250 0.500000
vt 0.750000 0.500000
vt 0.750000 1.000000
vt 0.781250 1.000000
vt 0.781250 0.500000
vt 0.750000 0.500000
vt 0.750000 1.000000
vt 0.781250 1.000000
vt 0.781250 0.500000
vt 0.750000 0.500000
vt 0.750000 1.000000
vt 0.781250 1.000000
vt 0.781250 0.500000
vt 0.781250 1.000000
vt 0.750000 1.000000
vt 0.750000 0.500000
vt 0.781250 0.500000
vt 0.781250 1.000000
vt 0.750000 1.000000
vt 0.750000 0.500000
vt 0.781250 0.500000
vt 0.781250 1.000000
vt 0.750000 1.000000
vt 0.750000 0.500000
vt 0.781250 0.500000
vt 0.781250 1.000000
vt 0.750000 1.000000
vt 0.750000 0.500000
vt 0.781250 0.500000
vt 0.781250 1.000000
vt 0.750000 1.000000
vt 0.750000 0.500000
vt 0.781250 0.500000
vt 0.781250 1.000000
vt 0.750000 1.000000
vt 0.750000 0.500000
vt 0.781250 0.500000
vt 0.781250 1.000000
vt 0.750000 1.000000
vt 0.750000 0.500000
vt 0.781250 0.500000
vt 0.781250 1.000000
vt 0.750000 1.000000
vt 0.750000 0.500000
vt 0.781250 0.500000
vt 0.781250 1.000000
vt 0.750000 1.000000
vt 0.750000 0.500000
vt 0.781250 0.500000
vt 0.781250 1.000000
vt 0.750000 1.000000
vt 0.750000 0.500000
vt 0.781250 0.500000
vt 0.781250 1.000000
vt 0.750000 1.000000
vt 0.750000 0.500000
vt 0.781250 0.500000
vt 0.781250 1.000000
vt 0.750000 1.000000
vt 0.750000 0.500000
vt 0.781250 0.500000
vt 0.781250 1.000000
vt 0.750000 1.000000
vt 0.750000 0.500000
vt 0.781250 0.500000
vt 0.781250 1.000000
vt 0.750000 1.000000
vt 0.750000 0.500000
vt 0.781250 0.500000
vt 0.781250 1.000000
vt 0.750000 1.000000
vt 0.750000 0.500000
vt 0.781250 0.500000
vt 0.781250 1.000000
vt 0.750000 1.000000
vt 0.750000 0.500000
vt 0.781250 0.500000
vt 0.781250 1.000000
vt 0.750000 1.000000
vt 0.750000 0.500000
vt 0.781250 0.500000
vt 0.781250 1.000000
vt 0.750000 1.000000
vt 0.750000 0.500000
vt 0.781250 0.500000
vt 0.781250 1.000000
vt 0.750000 1.000000
vt 0.750000 0.500000
vt 0.781250 0.500000
vt 0.781250 1.000000
vt 0.750000 1.000000
vt 0.750000 0.500000
vt 0.781250 0.500000
vt 0.781250 1.000000
vt 0.750000 1.000000
vt 0.750000 0.500000
vt 0.781250 0.500000
vt 0.781250 1.000000
vt 0.750000 1.000000
vt 0.750000 0.500000
vt 0.781250 0.500000
vt 0.781250 1.000000
vt 0.750000 1.000000
vt 0.750000 0.500000
vt 0.781250 0.500000
vt 0.781250 1.000000
vt 0.750000 1.000000
vt 0.750000 0.500000
vt 0.781250 0.500000
vt 0.781250 1.000000
vt 0.750000 1.000000
vt 0.750000 0.500000
vt 0.781250 0.500000
vt 0.781250 1.000000
vt 0.750000 1.000000
vt 0.750000 0.500000
vt 0.781250 0.500000
vt 0.781250 1.000000
vt 0.750000 1.000000
vt 0.750000 0.500000
vt 0.781250 0.500000
vt 0.781250 1.000000
vt 0.750000 1.000000
vt 0.750000 0.500000
vt 0.781250 0.500000
vt 0.781250 1.000000
vt 0.750000 1.000000
vt 0.750000 0.500000
vt 0.781250 0.500000
vt 0.781250 1.000000
vt 0.750000 1.000000
vt 0.750000 0.500000
vt 0.781250 0.500000
vt 0.781250 1.000000
vt 0.750000 1.000000
vt 0.750000 0.500000
vt 0.781250 0.500000
vt 0.781250 1.000000
vt 0.750000 1.000000
vt 0.750000 0.500000
vn 0.0000 0.9952 0.0980
vn 0.0000 0.9569 0.2903
vn 0.0000 0.8819 0.4714
vn 0.0000 0.7730 0.6344
vn 0.0000 0.6344 0.7730
vn 0.0000 0.4714 0.8819
vn 0.0000 0.2903 0.9569
vn 0.0000 0.0980 0.9952
vn 0.0000 -0.0980 0.9952
vn 0.0000 -0.2903 0.9569
vn 0.0000 -0.4714 0.8819
vn 0.0000 -0.6344 0.7730
vn 0.0000 -0.7730 0.6344
vn 0.0000 -0.8819 0.4714
vn 0.0000 -0.9569 0.2903
vn 0.0000 -0.9952 0.0980
vn 0.0000 -0.9952 -0.0980
vn 0.0000 -0.9569 -0.2903
vn 0.0000 -0.8819 -0.4714
vn 0.0000 -0.7730 -0.6344
vn 0.0000 -0.6344 -0.7730
vn 0.0000 -0.4714 -0.8819
vn 0.0000 -0.2903 -0.9569
vn 0.0000 -0.0980 -0.9952
vn 0.0000 0.0980 -0.9952
vn 0.0000 0.2903 -0.9569
vn 0.0000 0.4714 -0.8819
vn 0.0000 0.6344 -0.7730
vn 0.0000 0.7730 -0.6344
vn -0.0000 0.8819 -0.4714
vn 0.0000 0.9569 -0.2903
vn 0.0000 0.9952 -0.0980
vn 1.0000 0.0000 0.0000
vn -1.0000 0.0000 0.0000
usemtl Material
s off
f 5/5/2 7/6/2 8/7/2 6/8/2
f 9/9/3 11/10/3 12/11/3 10/12/3
f 13/13/4 15/14/4 16/15/4 14/16/4
f 17/17/5 19/18/5 20/19/5 18/20/5
f 21/21/6 23/22/6 24/23/6 22/24/6
f 25/25/7 27/26/7 28/27/7 26/28/7
f 29/29/8 31/30/8 32/31/8 30/32/8
f 33/33/9 35/34/9 36/35/9 34/36/9
f 37/37/10 39/38/10 40/39/10 38/40/10
f 41/41/11 43/42/11 44/43/11 42/44/11
f 45/45/12 47/46/12 48/47/12 46/48/12
f 49/49/13 51/50/13 52/51/13 50/52/13
f 53/53/14 55/54/14 56/55/14 54/56/14
f 57/57/15 59/58/15 60/59/15 58/60/15
f 61/61/16 63/62/16 64/63/16 62/64/16
f 65/65/17 67/66/17 68/67/17 66/68/17
f 69/69/18 71/70/18 72/71/18 70/72/18
f 73/73/19 75/74/19 76/75/19 74/76/19
f 77/77/20 79/78/20 80/79/20 78/80/20
f 81/81/21 83/82/21 84/83/21 82/84/21
f 85/85/22 87/86/22 88/87/22 86/88/22
f 89/89/23 91/90/23 92/91/23 90/92/23
f 93/93/24 95/94/24 96/95/24 94/96/24
f 97/97/25 99/98/25 100/99/25 98/100/25
f 101/101/26 103/102/26 104/103/26 102/104/26
f 105/105/27 107/106/27 108/107/27 106/108/27
f 109/109/28 111/110/28 112/111/28 110/112/28
f 113/113/29 115/114/29 116/115/29 114/116/29
f 117/117/30 119/118/30 120/119/30 118/120/30
f 121/121/31 123/122/31 124/123/31 122/124/31
f 125/125/32 127/126/32 128/127/32 126/128/32
f 129/129/33 131/130/33 132/131/33 130/132/33
f 134/133/18 133/134/18 136/135/18 135/136/18
f 138/137/19 137/138/19 140/139/19 139/140/19
f 142/141/20 141/142/20 144/143/20 143/144/20
f 146/145/21 145/146/21 148/147/21 147/148/21
f 150/149/22 149/150/22 152/151/22 151/152/22
f 154/153/23 153/154/23 156/155/23 155/156/23
f 158/157/24 157/158/24 160/159/24 159/160/24
f 162/161/25 161/162/25 164/163/25 163/164/25
f 166/165/26 165/166/26 168/167/26 167/168/26
f 170/169/27 169/170/27 172/171/27 171/172/27
f 174/173/28 173/174/28 176/175/28 175/176/28
f 178/177/29 177/178/29 180/179/29 179/180/29
f 182/181/30 181/182/30 184/183/30 183/184/30
f 186/185/31 185/186/31 188/187/31 187/188/31
f 190/189/32 189/190/32 192/191/32 191/192/32
f 194/193/33 193/194/33 196/195/33 195/196/33
f 198/197/2 197/198/2 200/199/2 199/200/2
f 202/201/3 201/202/3 204/203/3 203/204/3
f 206/205/4 205/206/4 208/207/4 207/208/4
f 210/209/5 209/210/5 212/211/5 211/212/5
f 214/213/6 213/214/6 216/215/6 215/216/6
f 218/217/7 217/218/7 220/219/7 219/220/7
f 222/221/8 221/222/8 224/223/8 223/224/8
f 226/225/9 225/226/9 228/227/9 227/228/9
f 230/229/10 229/230/10 232/231/10 231/232/10
f 234/233/11 233/234/11 236/235/11 235/236/11
f 238/237/12 237/238/12 240/239/12 239/240/12
f 242/241/13 241/242/13 244/243/13 243/244/13
f 246/245/14 245/246/14 248/247/14 247/248/14
f 250/249/15 249/250/15 252/251/15 251/252/15
f 254/253/16 253/254/16 256/255/16 255/256/16
f 258/257/17 257/258/17 260/259/17 259/260/17
f 62/64/34 64/63/34 192/191/34 189/190/34
f 12/11/11 11/10/11 139/140/11 140/139/11
f 114/116/34 116/115/34 244/243/34 241/242/34
f 64/63/24 63/62/24 191/192/24 192/191/24
f 13/13/28 14/16/28 141/142/28 142/141/28
f 116/115/5 115/114/5 243/244/5 244/243/5
f 65/65/9 66/68/9 193/194/9 194/193/9
f 15/14/35 13/13/35 142/141/35 143/144/35
f 117/117/22 118/120/22 245/246/22 246/245/22
f 67/66/35 65/65/35 194/193/35 195/196/35
f 14/16/34 16/15/34 144/143/34 141/142/34
f 119/118/35 117/117/35 246/245/35 247/248/35
f 66/68/34 68/67/34 196/195/34 193/194/34
f 16/15/12 15/14/12 143/144/12 144/143/12
f 118/120/34 120/119/34 248/247/34 245/246/34
f 68/67/25 67/66/25 195/196/25 196/195/25
f 17/17/29 18/20/29 145/146/29 146/145/29
f 120/119/6 119/118/6 247/248/6 248/247/6
f 69/69/10 70/72/10 197/198/10 198/197/10
f 19/18/35 17/17/35 146/145/35 147/148/35
f 121/121/23 122/124/23 249/250/23 250/249/23
f 71/70/35 69/69/35 198/197/35 199/200/35
f 18/20/34 20/19/34 148/147/34 145/146/34
f 123/122/35 121/121/35 250/249/35 251/252/35
f 70/72/34 72/71/34 200/199/34 197/198/34
f 20/19/13 19/18/13 147/148/13 148/147/13
f 122/124/34 124/123/34 252/251/34 249/250/34
f 72/71/26 71/70/26 199/200/26 200/199/26
f 21/21/30 22/24/30 149/150/30 150/149/30
f 124/123/7 123/122/7 251/252/7 252/251/7
f 73/73/11 74/76/11 201/202/11 202/201/11
f 23/22/35 21/21/35 150/149/35 151/152/35
f 125/125/24 126/128/24 253/254/24 254/253/24
f 75/74/35 73/73/35 202/201/35 203/204/35
f 22/24/34 24/23/34 152/151/34 149/150/34
f 127/126/35 125/125/35 254/253/35 255/256/35
f 74/76/34 76/75/34 204/203/34 201/202/34
f 24/23/14 23/22/14 151/152/14 152/151/14
f 126/128/34 128/127/34 256/255/34 253/254/34
f 76/75/27 75/74/27 203/204/27 204/203/27
f 25/25/31 26/28/31 153/154/31 154/153/31
f 128/127/8 127/126/8 255/256/8 256/255/8
f 77/77/12 78/80/12 205/206/12 206/205/12
f 27/26/35 25/25/35 154/153/35 155/156/35
f 129/129/25 130/132/25 257/258/25 258/257/25
f 79/78/35 77/77/35 206/205/35 207/208/35
f 26/28/34 28/27/34 156/155/34 153/154/34
f 131/130/35 129/129/35 258/257/35 259/260/35
f 78/80/34 80/79/34 208/207/34 205/206/34
f 28/27/15 27/26/15 155/156/15 156/155/15
f 130/132/34 132/131/34 260/259/34 257/258/34
f 80/79/28 79/78/28 207/208/28 208/207/28
f 29/29/32 30/32/32 157/158/32 158/157/32
f 132/131/9 131/130/9 259/260/9 260/259/9
f 81/81/13 82/84/13 209/210/13 210/209/13
f 31/30/35 29/29/35 158/157/35 159/160/35
f 83/82/35 81/81/35 210/209/35 211/212/35
f 30/32/34 32/31/34 160/159/34 157/158/34
f 82/84/34 84/83/34 212/211/34 209/210/34
f 32/31/16 31/30/16 159/160/16 160/159/16
f 84/83/29 83/82/29 211/212/29 212/211/29
f 33/33/33 34/36/33 161/162/33 162/161/33
f 85/85/14 86/88/14 213/214/14 214/213/14
f 35/34/35 33/33/35 162/161/35 163/164/35
f 87/86/35 85/85/35 214/213/35 215/216/35
f 34/36/34 36/35/34 164/163/34 161/162/34
f 86/88/34 88/87/34 216/215/34 213/214/34
f 36/35/17 35/34/17 163/164/17 164/163/17
f 88/87/30 87/86/30 215/216/30 216/215/30
f 37/37/2 38/40/2 165/166/2 166/165/2
f 89/89/15 90/92/15 217/218/15 218/217/15
f 39/38/35 37/37/35 166/165/35 167/168/35
f 91/90/35 89/89/35 218/217/35 219/220/35
f 38/40/34 40/39/34 168/167/34 165/166/34
f 90/92/34 92/91/34 220/219/34 217/218/34
f 40/39/18 39/38/18 167/168/18 168/167/18
f 92/91/31 91/90/31 219/220/31 220/219/31
f 41/41/3 42/44/3 169/170/3 170/169/3
f 93/93/16 94/96/16 221/222/16 222/221/16
f 43/42/35 41/41/35 170/169/35 171/172/35
f 95/94/35 93/93/35 222/221/35 223/224/35
f 42/44/34 44/43/34 172/171/34 169/170/34
f 94/96/34 96/95/34 224/223/34 221/222/34
f 44/43/19 43/42/19 171/172/19 172/171/19
f 96/95/32 95/94/32 223/224/32 224/223/32
f 45/45/4 46/48/4 173/174/4 174/173/4
f 97/97/17 98/100/17 225/226/17 226/225/17
f 47/46/35 45/45/35 174/173/35 175/176/35
f 99/98/35 97/97/35 226/225/35 227/228/35
f 46/48/34 48/47/34 176/175/34 173/174/34
f 98/100/34 100/99/34 228/227/34 225/226/34
f 48/47/20 47/46/20 175/176/20 176/175/20
f 100/99/33 99/98/33 227/228/33 228/227/33
f 49/49/5 50/52/5 177/178/5 178/177/5
f 101/101/18 102/104/18 229/230/18 230/229/18
f 51/50/35 49/49/35 178/177/35 179/180/35
f 103/102/35 101/101/35 230/229/35 231/232/35
f 50/52/34 52/51/34 180/179/34 177/178/34
f 102/104/34 104/103/34 232/231/34 229/230/34
f 52/51/21 51/50/21 179/180/21 180/179/21
f 104/103/2 103/102/2 231/232/2 232/231/2
f 53/53/6 54/56/6 181/182/6 182/181/6
f 105/105/19 106/108/19 233/234/19 234/233/19
f 55/54/35 53/53/35 182/181/35 183/184/35
f 107/106/35 105/105/35 234/233/35 235/236/35
f 54/56/34 56/55/34 184/183/34 181/182/34
f 106/108/34 108/107/34 236/235/34 233/234/34
f 56/55/22 55/54/22 183/184/22 184/183/22
f 5/5/26 6/8/26 133/134/26 134/133/26
f 108/107/3 107/106/3 235/236/3 236/235/3
f 57/57/7 58/60/7 185/186/7 186/185/7
f 7/6/35 5/5/35 134/133/35 135/136/35
f 109/109/20 110/112/20 237/238/20 238/237/20
f 59/58/35 57/57/35 186/185/35 187/188/35
f 6/8/34 8/7/34 136/135/34 133/134/34
f 111/110/35 109/109/35 238/237/35 239/240/35
f 58/60/34 60/59/34 188/187/34 185/186/34
f 8/7/10 7/6/10 135/136/10 136/135/10
f 110/112/34 112/111/34 240/239/34 237/238/34
f 60/59/23 59/58/23 187/188/23 188/187/23
f 9/9/27 10/12/27 137/138/27 138/137/27
f 112/111/4 111/110/4 239/240/4 240/239/4
f 61/61/8 62/64/8 189/190/8 190/189/8
f 11/10/35 9/9/35 138/137/35 139/140/35
f 113/113/21 114/116/21 241/242/21 242/241/21
f 63/62/35 61/61/35 190/189/35 191/192/35
f 10/12/34 12/11/34 140/139/34 137/138/34
f 115/114/35 113/113/35 242/241/35 243/244/35
